<?xml version="1.0" encoding="UTF-8"?>
<svg version="1.1" viewBox="0 0 1600 1504" width="1280" height="1280" xmlns="http://www.w3.org/2000/svg">
<path transform="translate(0)" d="m0 0h1600v1504h-1600v-1504z" fill="#FCFDFF"/>
<path transform="translate(1166 392)" d="m0 0c3.28 0.704 6.57 1.36 9.87 2.01 20.6 4.24 40.3 10.5 60 17.6 0.645 0.231 1.29 0.462 1.96 0.701 37.7 13.5 73.2 32.7 104 58.3 1.01 0.824 2.02 1.65 3.06 2.5 14.2 11.7 27.9 24.8 38.9 39.5 0.459 0.609 0.918 1.22 1.39 1.85 2.08 2.76 4.16 5.52 6.22 8.3 3.49 4.69 7.08 9.3 10.8 13.8 0.535 0.665 1.07 1.33 1.62 2.02 0.587 0.645 1.17 1.29 1.78 1.95 1.22 2.05 1.22 2.05 1.08 4.46-1.1 3.33-2.39 4.12-5.31 6-1.38 0.914-1.38 0.914-2.8 1.85-0.99 0.635-1.98 1.27-3 1.92-2.03 1.34-4.06 2.69-6.09 4.04-0.982 0.65-1.96 1.3-2.98 1.97-4.83 3.25-9.39 6.82-13.9 10.4-2.04 1.61-4.1 3.19-6.16 4.77-8.15 6.26-16 12.6-23.6 19.6-1.37 1.19-2.75 2.38-4.12 3.56-17.8 15.6-32.5 35.1-45.9 54.4-0.875 1.26-0.875 1.26-1.77 2.55-26.2 38-42.4 79.4-50.5 125-0.123 0.684-0.247 1.37-0.374 2.07-3.33 18.7-4.67 37.2-4.56 56.1 0.00366 1.43 0.00366 1.43 0.00739 2.89 0.0465 15.6 0.57 31 2.24 46.5 0.0854 0.801 0.171 1.6 0.259 2.43 0.696 6.29 1.68 12.3 3.26 18.5 0.632 2.76 0.971 5.51 1.31 8.32 4.97 39.8 19.9 79.9 41.2 114 1.08 1.75 2.16 3.51 3.24 5.26 10.3 16.6 21.3 32.5 34.8 46.7 1.15 1.33 2.3 2.66 3.44 4 6.9 7.93 14.5 15.2 22.6 22 0.88 0.746 1.76 1.49 2.67 2.26 7.64 6.43 15.4 12.7 23.3 18.7 0.855 0.659 0.855 0.659 1.73 1.33 19.2 14.7 40.1 27.4 61.9 37.9 9.08 4.41 9.08 4.41 12.4 7.74 0.805 6.59-0.604 11.5-3.38 17.4-0.748 1.68-1.49 3.36-2.23 5.04-0.394 0.892-0.787 1.78-1.19 2.7-2.12 4.98-3.99 10.1-5.89 15.1-9.33 24.5-20.3 48.3-31.6 72-1.58 3.32-3.14 6.64-4.7 9.97-14.3 30.4-30.5 59.6-49.4 87.4-2.93 4.32-5.84 8.66-8.73 13-0.429 0.645-0.857 1.29-1.3 1.95-0.864 1.3-1.73 2.6-2.59 3.9-20.5 30.8-20.5 30.8-29.9 43.6-1.61 2.21-3.2 4.44-4.77 6.69-5.57 7.97-11.2 15.8-17.2 23.5-0.486 0.625-0.973 1.25-1.47 1.89-0.54 0.649-1.08 1.3-1.64 1.97-1.66 2.38-2.62 4.29-3.71 6.93-2.49 5.32-5.28 9.61-10.2 12.9-10.2 3.15-21.6 2.26-32.2 2.08-4.52-0.0586-9.04-0.018-13.6 0.00982-7.92 0.0352-15.8 0.00741-23.7-0.0618-11.8-0.103-23.5-0.108-35.3-0.0928-19.8 0.0223-39.6-0.0344-59.4-0.136-19.6-0.101-39.2-0.166-58.8-0.184-1.83-0.00175-1.83-0.00175-3.69-0.00354-6.19-0.00575-12.4-0.0109-18.6-0.0158-43.9-0.0357-87.7-0.15-132-0.311-42.6-0.156-85.2-0.277-128-0.349-1.97-0.00335-1.97-0.00335-3.98-0.00678-13.2-0.0224-26.4-0.0441-39.6-0.0653-26.9-0.0431-53.7-0.0911-80.6-0.142-1.24-0.00233-2.47-0.00467-3.74-0.00707-82.5-0.156-165-0.426-247-0.713-0.447-0.929-0.893-1.86-1.35-2.82-1.82-3.51-4.1-6.26-6.71-9.18-3.96-4.54-7.62-9.18-11.1-14.1-2.9-4.16-5.87-8.17-9.12-12.1-6.64-7.97-12.7-16.4-18.8-24.8-0.844-1.16-0.844-1.16-1.71-2.34-3.78-5.2-7.55-10.4-11.3-15.7-0.513-0.714-1.03-1.43-1.55-2.16-6.97-9.72-13.7-19.6-20.1-29.7-1.37-2.15-2.75-4.3-4.14-6.44-18.1-28.2-34-57.6-49.5-87.4-1.73-3.33-3.48-6.65-5.27-9.95-13.5-25-24.6-50.9-34.5-77.4-0.267-0.709-0.534-1.42-0.809-2.15-22.6-60-40.1-122-52.2-185-0.142-0.736-0.284-1.47-0.431-2.23-4.27-22.1-7.58-44.3-10.4-66.7-0.227-1.76-0.227-1.76-0.459-3.56-0.436-3.4-0.861-6.81-1.28-10.2-0.126-0.988-0.251-1.98-0.381-2.99-1.91-15.8-2.16-31.5-2.17-47.3-0.00323-1.99-0.00659-3.98-0.0101-5.96-0.00594-4.14-0.00785-8.28-0.00725-12.4 1.01e-4 -5.24-0.0136-10.5-0.0308-15.7-0.0112-4.1-0.0131-8.2-0.0126-12.3-0.00116-1.93-0.00547-3.86-0.0133-5.79-0.0625-16.9 1.13-33.7 3.69-50.4 0.131-0.877 0.261-1.75 0.396-2.66 0.419-2.78 0.849-5.55 1.28-8.33 0.151-0.967 0.301-1.93 0.456-2.93 5.44-34.7 14.3-68.4 26.4-101 0.288-0.799 0.576-1.6 0.872-2.42 17.9-49.6 43.1-96 76.8-137 2.68-3.23 5.31-6.49 7.94-9.76 4.65-5.68 9.61-11 14.6-16.4 1.9-2.03 3.79-4.07 5.68-6.11 11.8-12.7 23.8-23.5 38.1-33.4 2.5-1.74 4.93-3.57 7.37-5.41 6.82-4.99 14.1-9.26 21.3-13.6 2.03-1.22 4.06-2.45 6.08-3.68 3.69-2.25 7.41-4.46 11.1-6.65 0.674-0.395 1.35-0.791 2.04-1.2 33.5-19.5 70.7-33.2 109-41.1 2.21-0.465 4.41-0.95 6.61-1.46 18-4.12 35.6-4.73 54-4.76 1.7-0.00674 1.7-0.00674 3.44-0.0136 14.1-0.0226 27.6 0.764 41.4 3.51 1.84 0.352 1.84 0.352 3.72 0.711 3.35 0.664 6.69 1.37 10 2.1 1.19 0.261 2.39 0.522 3.62 0.79 29.3 6.48 57.7 15.6 85.6 26.4 1.01 0.391 2.02 0.782 3.07 1.19 13.1 5.08 26.1 10.3 39.1 15.6 9.22 3.78 18.4 7.42 27.9 10.6 1.3 0.432 2.6 0.87 3.9 1.31 42.3 14.5 78.5 5 119-10.7 2.08-0.802 4.17-1.6 6.25-2.41 3.14-1.21 6.28-2.42 9.42-3.63 14.3-5.53 28.7-10.9 43.2-16.2 2.08-0.764 4.16-1.53 6.24-2.3 70.4-25.9 145-40.2 220-24.1z" fill="#000100"/>
<path transform="translate(1095)" d="m0 0h23c1.04 74.1-9.5 151-53 214-0.412 0.604-0.823 1.21-1.25 1.83-6.97 10.2-14.4 19.9-22.3 29.4-1.91 2.32-3.75 4.67-5.6 7.03-3.69 4.64-7.67 9-11.7 13.3-2.21 2.36-2.21 2.36-4.1 5.35h-2c-0.259 0.58-0.518 1.16-0.784 1.76-1.31 2.42-2.77 4.11-4.66 6.1-0.684 0.723-1.37 1.45-2.07 2.19-1.07 1.12-1.07 1.12-2.17 2.26-0.695 0.734-1.39 1.47-2.11 2.22-11.6 12.3-11.6 12.3-17 16.8-2.19 1.88-4.35 3.78-6.46 5.75-6.46 6.02-13.4 11.1-20.7 15.9l-2.1 1.39c-45.1 29.7-94.7 43.9-149 43.7-1.37 0.00357-2.75 0.00748-4.12 0.0117-1.29-0.00129-2.57-0.00258-3.9-0.00391-1.16-0.00113-2.32-0.00226-3.52-0.00342-2.65-0.129-2.65-0.129-3.65-1.13-0.113-2.24-0.155-4.48-0.168-6.73-0.00433-0.69-0.00865-1.38-0.0131-2.09-0.0102-2.27-0.0102-4.54-0.00642-6.81 0.00127-0.778 0.00254-1.56 0.00385-2.36 0.284-91.3 35.7-172 112-255 3.94-3.88 7.98-7.57 12.2-11.1 0.852-0.718 1.7-1.44 2.58-2.18 9.25-7.7 19.1-14.3 29.2-20.8 0.963-0.61 1.93-1.22 2.92-1.85 2.75-1.74 5.51-3.48 8.27-5.21 0.692-0.436 1.38-0.872 2.1-1.32 7.16-4.5 14.4-8.76 21.9-12.7 1.03-0.547 2.06-1.09 3.12-1.66 22-11.5 45.1-21.1 68.9-28.3 1.53-0.482 3.06-0.965 4.59-1.45 10.3-3.21 20.8-5.47 31.4-7.55v-1z" fill="#000100"/>
</svg>
